<?xml version="1.0" encoding="UTF-8"?>
<svg id="Calque_2" data-name="Calque 2" xmlns="http://www.w3.org/2000/svg" viewBox="0 0 311.53 311.53">
  <defs>
    <style>
      /* Couleurs par défaut (thème clair du navigateur) */
      .cls-1 { fill: #fff; }       /* doigts */
      .cls-2 { fill: #00b295; }    /* paume */
      .cls-3 { fill: #040f0f; }    /* cercle de fond */

      /* Inversion automatique en thème sombre */
      @media (prefers-color-scheme: dark) {
        .cls-1 { fill: #040f0f; }  /* doigts deviennent noirs */
        .cls-3 { fill: #ffffff; }  /* cercle de fond devient blanc */
        /* .cls-2 (paume turquoise) reste identique */
      }
    </style>
  </defs>
  <g id="Calque_1-2" data-name="Calque 1">
    <g>
      <g>
        <path class="cls-3" d="M155.76,311.03C70.15,311.03.5,241.38.5,155.76S70.15.5,155.76.5s155.26,69.65,155.26,155.26-69.65,155.26-155.26,155.26Z"/>
        <path d="M155.76,1c41.34,0,80.2,16.1,109.43,45.33,29.23,29.23,45.33,68.1,45.33,109.43s-16.1,80.2-45.33,109.43c-29.23,29.23-68.1,45.33-109.43,45.33s-80.2-16.1-109.43-45.33C17.1,235.97,1,197.1,1,155.76S17.1,75.56,46.33,46.33C75.56,17.1,114.42,1,155.76,1M155.76,0C69.74,0,0,69.74,0,155.76s69.74,155.76,155.76,155.76,155.76-69.74,155.76-155.76S241.79,0,155.76,0h0Z"/>
      </g>
      <g>
        <path class="cls-2" d="M150.7,281.13c-1.04,0-1.82-.03-2.29-.05-.16,0-.31,0-.47,0-18.26,0-33.43-6.14-45.09-18.24-25.88-26.87-24.64-73.99-24.47-78.23v-34.15c0-5.12,4.15-9.26,9.26-9.26s9.26,4.15,9.26,9.26v34.78c-.03.42-1.68,43.03,19.33,64.78,8.27,8.56,18.85,12.65,32.33,12.53h.41s.41.03.41.03c.15,0,19.83,1.18,34.65-12.67,11.86-11.08,17.87-28.92,17.87-53.03,0-5.12,4.15-9.26,9.26-9.26s9.26,4.15,9.26,9.26c0,29.6-8.07,52.08-24,66.79-17.22,15.92-38.25,17.45-45.74,17.45Z"/>
        <g>
          <path class="cls-1" d="M118.9,62.33c-5.2,0-9.42,4.22-9.42,9.42v98.42c0,5.2,4.22,9.42,9.42,9.42s9.42-4.22,9.42-9.42v-98.42c0-5.2-4.22-9.42-9.42-9.42Z"/>
          <path class="cls-1" d="M149.98,30.4c-5.2,0-9.42,4.22-9.42,9.42v122.55c0,5.2,4.22,9.42,9.42,9.42s9.42-4.22,9.42-9.42V39.82c0-5.2-4.22-9.42-9.42-9.42Z"/>
          <path class="cls-1" d="M180.86,47.07h0c5.2,0,9.42,4.22,9.42,9.42v115.04c0,5.2-4.22,9.42-9.42,9.42h0c-5.2,0-9.42-4.22-9.42-9.42V56.49c0-5.2,4.22-9.42,9.42-9.42Z"/>
          <path class="cls-1" d="M211.17,73.69h0c5.2,0,9.42,4.22,9.42,9.42v90.04c0,5.2-4.22,9.42-9.42,9.42h0c-5.2,0-9.42-4.22-9.42-9.42v-90.04c0-5.2,4.22-9.42,9.42-9.42Z"/>
        </g>
      </g>
    </g>
  </g>
</svg>
